<svg xmlns="http://www.w3.org/2000/svg" width="22.65" height="17.617" viewBox="0 0 22.65 17.617">
  <path id="Icon_fa-solid-credit-card" data-name="Icon fa-solid-credit-card" d="M2.517,2.25A2.519,2.519,0,0,0,0,4.767V6.025H22.65V4.767A2.519,2.519,0,0,0,20.133,2.25ZM22.65,9.8H0v7.55a2.519,2.519,0,0,0,2.517,2.517H20.133A2.519,2.519,0,0,0,22.65,17.35ZM4.4,14.833H6.921a.629.629,0,1,1,0,1.258H4.4a.629.629,0,1,1,0-1.258Zm4.4.629a.631.631,0,0,1,.629-.629h5.033a.629.629,0,1,1,0,1.258H9.437A.631.631,0,0,1,8.808,15.462Z" transform="translate(0 -2.25)" fill="#f50"/>
</svg>
