<svg id="Component_31_1" data-name="Component 31 – 1" xmlns="http://www.w3.org/2000/svg" width="21" height="21" viewBox="0 0 21 21">
  <g id="Path_3" data-name="Path 3" fill="#fff">
    <path d="M 10.5 20.5 C 4.985980033874512 20.5 0.5 16.0140209197998 0.5 10.5 C 0.5 4.985980033874512 4.985980033874512 0.5 10.5 0.5 C 16.0140209197998 0.5 20.5 4.985980033874512 20.5 10.5 C 20.5 16.0140209197998 16.0140209197998 20.5 10.5 20.5 Z" stroke="none"/>
    <path d="M 10.5 1 C 5.261679649353027 1 1 5.261679649353027 1 10.5 C 1 15.73831939697266 5.261679649353027 20 10.5 20 C 15.73831939697266 20 20 15.73831939697266 20 10.5 C 20 5.261679649353027 15.73831939697266 1 10.5 1 M 10.5 0 C 16.29899024963379 0 21 4.701009750366211 21 10.5 C 21 16.29899024963379 16.29899024963379 21 10.5 21 C 4.701009750366211 21 0 16.29899024963379 0 10.5 C 0 4.701009750366211 4.701009750366211 0 10.5 0 Z" stroke="none" fill="#ff6900"/>
  </g>
  <circle id="Ellipse_2" data-name="Ellipse 2" cx="5.5" cy="5.5" r="5.5" transform="translate(5 5)" fill="#ff6900"/>
</svg>
